<svg width="21" height="21" viewBox="0 0 21 21" fill="none" xmlns="http://www.w3.org/2000/svg">
<rect width="21" height="21" fill="#8E8E8E"/>
<g id="LibraryCard after login in account">
<rect width="1440" height="614" transform="translate(-238 -515)" fill="white"/>
<g id="find card">
<g id="card-body" filter="url(#filter0_d_0_1)">
<g id="card-bg">
<rect id="white-bg" x="-216.5" y="-326.5" width="597" height="383" fill="white" stroke="#BB945F" stroke-width="3"/>
<g id="cards profile">
<g id="visits_info">
<path id="Union" fill-rule="evenodd" clip-rule="evenodd" d="M10.5 10C13.2614 10 15.5 7.76142 15.5 5C15.5 2.23858 13.2614 0 10.5 0C7.73858 0 5.5 2.23858 5.5 5C5.5 7.76142 7.73858 10 10.5 10ZM17.5711 13.9289C19.4464 15.8043 20.5 18.3478 20.5 21H10.5L0.5 21C0.5 18.3478 1.55357 15.8043 3.42893 13.9289C5.3043 12.0536 7.84784 11 10.5 11C13.1522 11 15.6957 12.0536 17.5711 13.9289Z" fill="#BB945F"/>
</g>
</g>
</g>
</g>
</g>
</g>
<defs>
<filter id="filter0_d_0_1" x="-222" y="-328" width="608" height="395" filterUnits="userSpaceOnUse" color-interpolation-filters="sRGB">
<feFlood flood-opacity="0" result="BackgroundImageFix"/>
<feColorMatrix in="SourceAlpha" type="matrix" values="0 0 0 0 0 0 0 0 0 0 0 0 0 0 0 0 0 0 127 0" result="hardAlpha"/>
<feOffset dy="4"/>
<feGaussianBlur stdDeviation="2"/>
<feComposite in2="hardAlpha" operator="out"/>
<feColorMatrix type="matrix" values="0 0 0 0 0 0 0 0 0 0 0 0 0 0 0 0 0 0 0.25 0"/>
<feBlend mode="normal" in2="BackgroundImageFix" result="effect1_dropShadow_0_1"/>
<feBlend mode="normal" in="SourceGraphic" in2="effect1_dropShadow_0_1" result="shape"/>
</filter>
</defs>
</svg>
